<svg width="42" height="42" viewBox="0 0 42 42" fill="none" xmlns="http://www.w3.org/2000/svg">
<path d="M17.021 35.1037V35.1076V34.9406C17.021 34.9963 17.021 35.048 17.021 35.1037Z" fill="url(#paint0_linear_7890_5696)"/>
<path d="M17.6135 34.9923V35.0122C17.6135 35.0122 17.6135 34.9963 17.6095 34.9884H17.6135V34.9923Z" fill="url(#paint1_linear_7890_5696)"/>
<path d="M33.5146 25.6163C33.4311 25.6521 33.3476 25.6919 33.2601 25.7356C33.4032 25.672 33.5424 25.6084 33.6816 25.5447L33.5146 25.6163ZM31.272 26.7376C30.9379 26.9205 30.6 27.1154 30.258 27.3261C30.6397 27.0955 31.0214 26.8808 31.3912 26.674C31.3515 26.6939 31.3117 26.7138 31.272 26.7376ZM29.6735 27.6879C29.6099 27.7277 29.5463 27.7714 29.4866 27.8152C29.6139 27.7317 29.7411 27.6522 29.8683 27.5687C29.8047 27.6044 29.7371 27.6442 29.6735 27.6879ZM26.8742 29.855C27.1207 29.6244 27.3752 29.3977 27.6377 29.1751C27.3673 29.3938 27.1128 29.6204 26.8742 29.855ZM25.6257 31.2507C25.9279 30.8491 26.2698 30.4634 26.6356 30.0896C26.2539 30.4713 25.9159 30.857 25.6257 31.2507ZM25.2042 31.867C25.3354 31.6602 25.4746 31.4535 25.6257 31.2507C25.4666 31.4535 25.3274 31.6602 25.2042 31.867ZM24.8463 32.4952V32.5072C24.9537 32.2925 25.073 32.0777 25.2042 31.867C25.069 32.0738 24.9497 32.2845 24.8463 32.4952Z" fill="url(#paint2_linear_7890_5696)"/>
<path d="M17.0171 34.9406V35.1037C17.0171 35.048 17.0171 34.9963 17.0171 34.9406ZM16.5678 33.0678C16.6274 33.207 16.6831 33.3501 16.7348 33.4893C16.687 33.3462 16.6354 33.207 16.5678 33.0678ZM15.7407 30.69C15.9236 30.9008 16.0986 31.1195 16.2616 31.3421C16.1065 31.1234 15.9316 30.9087 15.7407 30.69ZM14.3013 29.2785C14.5995 29.5329 14.8858 29.7954 15.1562 30.0657C14.8937 29.7954 14.6075 29.5329 14.3013 29.2785ZM10.329 26.6223C10.6988 26.8251 11.0805 27.0398 11.4622 27.2665C11.0805 27.0358 10.6988 26.8171 10.329 26.6223Z" fill="url(#paint3_linear_7890_5696)"/>
<path d="M13.1959 13.3535L13.6015 13.7909L13.1919 13.3535H13.1959Z" fill="white"/>
<path d="M35.1369 25.5766V25.5845C34.6836 28.1253 32.3813 29.4733 29.7411 31.024C28.1784 31.9425 26.4289 32.9684 24.8622 34.3641C24.8702 34.2925 24.8861 34.2249 24.898 34.1533C24.9258 34.0181 24.9616 33.879 25.0014 33.7438C25.0253 33.6603 25.0491 33.5768 25.0809 33.4933C25.1127 33.3899 25.1525 33.2905 25.1962 33.1871C25.2241 33.1116 25.2559 33.04 25.2917 32.9644C25.3274 32.8809 25.3672 32.7935 25.4149 32.71C25.4746 32.5907 25.5422 32.4714 25.6098 32.3561C25.733 32.1453 25.8682 31.9346 26.0193 31.7318C26.0949 31.6284 26.1704 31.525 26.2499 31.4256C26.3255 31.3262 26.405 31.2308 26.4885 31.1354C26.568 31.0439 26.6476 30.9485 26.7311 30.861C29.2878 28.0379 33.6935 26.1412 35.1369 25.5766Z" fill="url(#paint4_linear_7890_5696)"/>
<path d="M16.9535 34.3601C15.3868 32.9684 13.6373 31.9425 12.0786 31.024C9.43832 29.4733 7.1321 28.1253 6.68278 25.5845V25.5766C8.22954 26.1849 13.18 28.3241 15.6214 31.4972C15.864 31.8034 16.0787 32.1255 16.2616 32.4555C16.3053 32.5231 16.3411 32.5907 16.3729 32.6583C16.4445 32.7935 16.5081 32.9287 16.5678 33.0678C16.6274 33.207 16.6831 33.3501 16.7348 33.4893C16.7586 33.5609 16.7785 33.6325 16.8024 33.704C16.8421 33.8273 16.8699 33.9506 16.8978 34.0778C16.9177 34.1692 16.9375 34.2647 16.9535 34.3601Z" fill="url(#paint5_linear_7890_5696)"/>
<path d="M29.6775 12.2322L28.9419 13.0195L27.7927 14.2522L25.9477 16.2125L25.9438 16.2204L24.2976 17.9779H24.2936L23.8364 18.467L20.9138 21.5884L17.9873 18.467L17.534 17.9819H17.53L15.7566 16.0932L15.3391 15.6439L13.6054 13.7949H13.6015L13.1959 13.3535H13.1919L3.04053 2.52222V3.27373C3.04053 3.67533 3.10017 13.0911 8.0029 17.6121C8.21364 17.803 8.43233 17.9819 8.66295 18.1529C9.80414 19.0078 11.1441 19.6042 12.5557 19.8309C13.3987 19.9263 14.1184 20.0893 14.7387 20.2961C14.9335 20.3597 15.1164 20.4313 15.2914 20.5029C18.2298 21.7395 18.4684 24.0775 18.4764 24.2008H18.4883C18.4803 24.2882 18.4764 24.3717 18.4764 24.4592C18.4764 25.8191 19.5659 26.9245 20.9098 26.9245C22.2538 26.9245 23.3433 25.8191 23.3433 24.4592C23.3433 24.3717 23.3393 24.2882 23.3314 24.2008H23.3433C23.3512 24.0775 23.5898 21.7395 26.5283 20.5029C26.7032 20.4313 26.8861 20.3597 27.081 20.2961C27.7013 20.0893 28.421 19.9263 29.2639 19.8348C30.6755 19.6042 32.0076 19.0197 33.1527 18.1608C33.3833 17.9899 33.606 17.8069 33.8207 17.6121C38.7195 13.0871 38.7752 3.67533 38.7752 3.27373V2.52222L29.6775 12.2322ZM18.1304 21.9184C17.6493 21.2782 16.858 20.5307 15.5737 19.974H15.5697C15.3908 19.8985 15.2039 19.8229 15.0051 19.7553H15.0011C14.3331 19.5247 13.5577 19.3418 12.6472 19.2424H12.6352C11.1044 18.9919 9.73654 18.3477 8.57548 17.3258L8.55957 17.3099L8.48005 17.2383C4.49981 13.6478 3.79204 6.43883 3.6648 4.05705L16.9216 18.2006L17.3551 18.6658L20.5082 22.0258C20.2657 22.0655 20.0311 22.1411 19.8203 22.2524H19.8164C19.6334 22.3439 19.4704 22.4552 19.3193 22.5944H19.3153C19.1205 22.7653 18.9575 22.9602 18.8263 23.1828C18.6871 22.8131 18.4724 22.3717 18.1304 21.9184ZM20.9098 26.3281C19.8959 26.3281 19.0728 25.4891 19.0728 24.4592C19.0728 23.4294 19.8959 22.5864 20.9098 22.5864C21.9238 22.5864 22.7469 23.4254 22.7469 24.4592C22.7469 25.4931 21.9238 26.3281 20.9098 26.3281ZM33.3436 17.2383C32.1547 18.3119 30.755 18.9839 29.1844 19.2424H29.1725C28.2659 19.3418 27.4866 19.5247 26.8185 19.7553H26.8146C26.6158 19.8269 26.4289 19.8985 26.2499 19.978H26.246C24.2101 20.8607 23.3512 22.2683 22.9974 23.1988C22.8661 22.9681 22.6991 22.7653 22.5003 22.5904H22.4964C22.3453 22.4552 22.1822 22.3399 22.0033 22.2524H21.9993C21.7886 22.1411 21.5619 22.0655 21.3194 22.0297L24.4686 18.6698L24.906 18.2046L28.2261 14.6538L38.1549 4.05705C38.0276 6.43883 37.3198 13.6438 33.3436 17.2383Z" fill="url(#paint6_linear_7890_5696)"/>
<path d="M29.1128 11.7432C29.1089 11.8346 29.1049 11.9261 29.1009 12.0096C29.085 12.264 29.0532 12.4827 29.0214 12.6497C29.0055 12.7412 28.9896 12.8167 28.9777 12.8764C28.9697 12.9082 28.9617 12.936 28.9538 12.9599C28.9498 12.9877 28.9458 13.0036 28.9419 13.0195L27.7927 14.2522H27.7887C27.2241 14.8168 25.6734 16.1409 23.4944 16.1409C22.222 16.1409 21.4108 15.7632 20.548 15.3576C19.709 14.9679 18.8422 14.5623 17.538 14.4987C16.4405 14.447 15.693 15.1906 15.3391 15.6399L13.6015 13.7949H13.6054C13.8758 13.5524 14.4047 13.1269 15.1244 12.773C15.351 12.6617 15.6015 12.5583 15.864 12.4668C16.361 12.2998 16.9216 12.1885 17.526 12.1885C18.7428 12.1885 19.5301 12.5742 20.3691 12.9798C21.2319 13.4013 22.1266 13.8347 23.4944 13.8347C25.9835 13.8347 28.5562 11.934 29.0452 11.3177C29.081 11.3893 29.1168 11.5245 29.1128 11.7432Z" fill="url(#paint7_linear_7890_5696)"/>
<path d="M19.8164 22.2524L16.695 18.972L16.2695 18.5267L4.38848 6.04916L4.51572 6.97165C4.53162 7.08696 6.2613 18.5982 15.4027 18.5982H15.514L15.7765 18.8726L16.19 19.306L19.3153 22.5944H19.3193C19.4704 22.4592 19.6374 22.3478 19.8203 22.2564H19.8164V22.2524ZM5.30699 7.88221L14.9335 17.9938C8.22954 17.6718 5.93524 10.5463 5.30699 7.88221Z" fill="url(#paint8_linear_7890_5696)"/>
<path d="M20.9098 23.0675C20.1504 23.0675 19.534 23.6918 19.534 24.4592C19.534 25.2266 20.1504 25.8509 20.9098 25.8509C21.6693 25.8509 22.2856 25.2266 22.2856 24.4592C22.2856 23.6918 21.6693 23.0675 20.9098 23.0675ZM20.9098 25.2545C20.4804 25.2545 20.1305 24.8966 20.1305 24.4592C20.1305 24.0218 20.4804 23.664 20.9098 23.664C21.3393 23.664 21.6892 24.0218 21.6892 24.4592C21.6892 24.8966 21.3393 25.2545 20.9098 25.2545Z" fill="url(#paint9_linear_7890_5696)"/>
<path d="M25.5501 18.5267L25.1247 18.972L22.0033 22.2524H21.9993C22.1783 22.3439 22.3453 22.4592 22.4964 22.5944L22.5003 22.5904L26.3056 18.5982H26.413C35.5544 18.5982 37.2841 7.08696 37.3 6.97165L37.4312 6.04916L25.5501 18.5267ZM26.8822 17.9899L36.5127 7.88221C35.8884 10.5463 33.5941 17.6718 26.8822 17.9899Z" fill="url(#paint10_linear_7890_5696)"/>
<path d="M21.4307 36.3284C22.2737 36.1653 22.8781 35.6087 22.8781 34.9287C22.8781 34.1176 22.0152 33.4814 20.9098 33.4814C19.8044 33.4814 18.9416 34.1176 18.9416 34.9287C18.9416 35.6087 19.546 36.1653 20.3889 36.3284C20.0947 36.7618 19.6613 37.3304 19.2955 37.6047H19.2915C19.3591 37.6803 19.4307 37.7519 19.5022 37.8195C19.5539 37.8711 19.6136 37.9228 19.6653 37.9705C19.6812 37.9904 19.701 38.0063 19.7209 38.0222H19.7249C20.1822 37.6524 20.6355 37.0361 20.9098 36.6305C21.1842 37.0401 21.6415 37.6564 22.0987 38.0222H22.1027C22.1783 37.9626 22.2498 37.891 22.3214 37.8195C22.393 37.7519 22.4645 37.6803 22.5321 37.6047H22.5282C22.1584 37.3383 21.725 36.7657 21.4307 36.3284ZM19.538 34.9287C19.538 34.4675 20.1663 34.0778 20.9098 34.0778C21.6534 34.0778 22.2816 34.4675 22.2816 34.9287C22.2816 35.39 21.6534 35.7836 20.9098 35.7836C20.1663 35.7836 19.538 35.3939 19.538 34.9287Z" fill="url(#paint11_linear_7890_5696)"/>
<path d="M14.7267 23.2504C13.2396 22.2166 9.32301 22.145 7.87168 22.153C8.6391 20.4869 8.71067 19.0038 8.66295 18.1529C9.80414 19.0078 11.1441 19.6042 12.5557 19.8309C13.3987 19.9263 14.1184 20.0893 14.7387 20.2961C14.349 21.31 14.4842 22.3995 14.7267 23.2504Z" fill="url(#paint12_linear_7890_5696)"/>
<path d="M16.9733 32.5072C16.8938 32.3481 16.8103 32.1851 16.7149 32.026C16.6672 31.9505 16.6194 31.871 16.5717 31.7954C16.524 31.7199 16.4723 31.6443 16.4206 31.5688C16.3689 31.4932 16.3172 31.4177 16.2616 31.3421C16.1065 31.1234 15.9316 30.9087 15.7407 30.69C15.6771 30.6184 15.6174 30.5469 15.5538 30.4793C15.4862 30.4077 15.4226 30.3401 15.359 30.2685L15.1562 30.0657C14.8937 29.7954 14.6075 29.5329 14.3013 29.2785C14.2297 29.2109 14.1542 29.1512 14.0786 29.0916C14.0031 29.0279 13.9275 28.9683 13.848 28.9047C13.7088 28.7933 13.5697 28.686 13.4265 28.5786C13.1402 28.3679 12.85 28.1611 12.5557 27.9623C12.4165 27.8709 12.2774 27.7794 12.1422 27.6879C12.1342 27.68 12.1223 27.676 12.1143 27.672C11.8996 27.5329 11.6809 27.3977 11.4622 27.2665C11.0805 27.0358 10.6988 26.8171 10.329 26.6223C10.0865 26.4911 9.8439 26.3639 9.60533 26.2446C9.47411 26.177 9.34687 26.1094 9.21963 26.0497C9.07649 25.9821 8.94129 25.9145 8.80212 25.8509C8.79815 25.843 8.79417 25.843 8.79019 25.843C8.58343 25.7475 8.38462 25.6561 8.18978 25.5646C8.12616 25.5368 8.06652 25.509 8.0029 25.4811C7.88361 25.4294 7.7683 25.3777 7.65696 25.33C7.50984 25.2664 7.37465 25.2107 7.25138 25.163C7.14402 25.1193 7.04064 25.0795 6.94521 25.0358C6.90545 25.0199 6.86966 25.0079 6.83388 24.992C6.7623 24.9682 6.70266 24.9443 6.64699 24.9205C6.53963 24.8807 6.46011 24.8489 6.42432 24.837C6.31696 24.7932 6.22153 24.7574 6.13803 24.7256C6.7464 24.0656 7.21162 23.4015 7.56948 22.7534C8.22954 22.7415 9.23156 22.7534 10.2813 22.829C10.5159 23.3976 11.3151 25.1909 12.4523 26.4116C13.6174 27.6641 15.7765 27.7993 16.5161 27.8072C16.7387 28.9484 16.9018 30.4554 16.9733 32.5072Z" fill="url(#paint13_linear_7890_5696)"/>
<path d="M35.6816 24.7256C35.5941 24.7574 35.4987 24.7932 35.3914 24.837C35.3834 24.837 35.3754 24.837 35.3635 24.8489C35.3556 24.8529 35.3436 24.8569 35.3277 24.8608C35.288 24.8767 35.2363 24.8966 35.1687 24.9205C35.1249 24.9364 35.0772 24.9563 35.0216 24.9761C34.9977 24.9881 34.9659 25 34.9381 25.0119C34.8784 25.0358 34.8148 25.0596 34.7472 25.0875C34.6836 25.1153 34.616 25.1392 34.5444 25.171C34.5404 25.171 34.5365 25.175 34.5285 25.175C34.4887 25.1909 34.445 25.2107 34.4013 25.2306C33.7134 25.5169 32.7392 25.9543 31.6616 26.5269C31.5304 26.5945 31.4032 26.666 31.272 26.7376C30.9379 26.9205 30.6 27.1154 30.258 27.3261C30.2461 27.3301 30.2341 27.3341 30.2262 27.346C30.1069 27.4136 29.9876 27.4891 29.8683 27.5687C29.8047 27.6044 29.7371 27.6442 29.6735 27.6879C29.6099 27.7277 29.5463 27.7714 29.4866 27.8152C29.427 27.8549 29.3633 27.8947 29.2997 27.9385C29.2719 27.9583 29.2401 27.9782 29.2083 27.9981C29.089 28.0816 28.9697 28.1611 28.8504 28.2446C28.6834 28.3639 28.5164 28.4832 28.3534 28.6065C28.1108 28.7933 27.8723 28.9802 27.6377 29.1751C27.3673 29.3938 27.1128 29.6204 26.8742 29.855C26.7947 29.9306 26.7152 30.0101 26.6356 30.0896C26.2539 30.4713 25.9159 30.857 25.6257 31.2507C25.4666 31.4535 25.3274 31.6602 25.2042 31.867C25.069 32.0738 24.9497 32.2845 24.8463 32.4952C24.9179 30.4514 25.0809 28.9444 25.3036 27.8072C26.0432 27.7993 28.2023 27.6641 29.3673 26.4116C30.5045 25.1909 31.2998 23.3976 31.5344 22.829C32.5841 22.7534 33.5861 22.7415 34.2462 22.7534C34.6041 23.3976 35.0732 24.0656 35.6816 24.7256Z" fill="url(#paint14_linear_7890_5696)"/>
<path d="M33.94 22.153C32.4807 22.145 28.584 22.2166 27.0929 23.2465C27.3355 22.3955 27.4706 21.3061 27.081 20.2961C27.7013 20.0893 28.421 19.9263 29.2639 19.8348C30.6755 19.6042 32.0076 19.0197 33.1527 18.1608C33.105 19.0157 33.1726 20.4909 33.94 22.153Z" fill="url(#paint15_linear_7890_5696)"/>
<path d="M27.0929 23.2465C26.8861 23.994 26.5959 24.5547 26.5124 24.7097C26.5124 24.7097 26.5097 24.7137 26.5044 24.7217C26.5044 24.7217 26.4885 24.7376 26.4806 24.7495C26.0909 25.2783 25.7211 26.002 25.4308 27.2028C25.3871 27.3897 25.3434 27.5925 25.3036 27.8072C25.0809 28.9444 24.9179 30.4514 24.8463 32.4952V32.5072C24.8185 33.2905 24.8026 34.1533 24.8026 35.1037V35.1713L24.7747 35.2309C24.7747 35.2309 24.7628 35.2587 24.7469 35.2866C24.5083 35.7836 22.8025 39.1793 20.9138 39.1793C19.0251 39.1793 17.3193 35.7995 17.0727 35.2906V35.2826C17.0608 35.2548 17.0529 35.2389 17.0489 35.2309L17.021 35.1713V35.1037C17.021 35.048 17.021 34.9963 17.021 34.9406V34.8412C17.0171 33.9943 17.0051 33.2189 16.9773 32.5072C16.9057 30.4554 16.7427 28.9484 16.52 27.8072C16.4803 27.5925 16.4365 27.3897 16.3888 27.2028C16.1025 26.002 15.7327 25.2783 15.3431 24.7495C15.3351 24.7376 15.3272 24.7296 15.3192 24.7217C15.3192 24.7217 15.3152 24.7217 15.3152 24.7177C15.3152 24.7137 15.3113 24.7177 15.3113 24.7097C15.2278 24.5547 14.9375 23.994 14.7307 23.2504C14.4882 22.3995 14.353 21.31 14.7427 20.2961C14.9375 20.3597 15.1204 20.4313 15.2954 20.5029C14.6273 22.2643 15.8361 24.4354 15.852 24.4592H15.8481C16.9137 25.9543 17.6095 28.3838 17.6175 34.9923H17.6135C17.6135 34.9923 17.6175 34.9963 17.6175 35.0043V35.0361C17.9117 35.6524 18.5479 36.7816 19.2955 37.6008L19.2994 37.6047C19.367 37.6803 19.4386 37.7519 19.5062 37.8194C19.5579 37.8711 19.6175 37.9228 19.6692 37.9705C19.6891 37.9865 19.709 38.0024 19.7249 38.0183H19.7289C20.1186 38.3602 20.5241 38.5829 20.9178 38.5829C21.3114 38.5829 21.713 38.3602 22.1027 38.0222H22.1067C22.1822 37.9586 22.2538 37.891 22.3254 37.8194C22.393 37.7519 22.4645 37.6803 22.5321 37.6047H22.5361C23.2797 36.7816 23.9119 35.6564 24.2101 35.04C24.2101 35.0082 24.2101 34.9844 24.2141 34.9565C24.2141 34.9645 24.2101 34.9685 24.2101 34.9724C24.2181 28.3838 24.9139 25.9543 25.9796 24.4632C25.9955 24.4354 27.2042 22.2643 26.5362 20.5029C26.7112 20.4313 26.8941 20.3597 27.0889 20.2961C27.4786 21.3061 27.3434 22.3955 27.1009 23.2465L27.0929 23.2465Z" fill="url(#paint16_linear_7890_5696)"/>
<path d="M16.3848 27.2028C15.6214 27.175 13.8241 27.008 12.8857 26.006C11.9752 25.0239 11.2754 23.6004 10.9573 22.8846C12.5 23.0317 14.0031 23.326 14.5597 23.8827C14.8102 24.1332 15.0647 24.3877 15.3073 24.7097C15.3073 24.7137 15.3113 24.7137 15.3113 24.7177C15.3113 24.7217 15.3152 24.7217 15.3152 24.7217C15.3232 24.7376 15.3272 24.7495 15.3311 24.7535H15.3391C15.7288 25.2783 16.0986 26.002 16.3848 27.2028Z" fill="url(#paint17_linear_7890_5696)"/>
<path d="M15.3391 24.7495H15.3311C15.3311 24.7495 15.3232 24.7376 15.3152 24.7217C15.3232 24.7296 15.3311 24.7376 15.3391 24.7495Z" fill="url(#paint18_linear_7890_5696)"/>
<path d="M25.9438 16.2204L24.2976 17.9779H24.2936C23.4387 17.7195 22.4129 17.5763 21.208 17.5525L20.9098 17.5485H20.5679C19.3829 17.5803 18.373 17.7234 17.534 17.9819H17.53L15.7566 16.0932C15.9991 15.7592 16.5956 15.0912 17.4306 15.0912H17.5101C18.6951 15.1548 19.4744 15.5166 20.2975 15.8983C21.1802 16.3119 22.0908 16.7373 23.4944 16.7373C24.4248 16.7373 25.2479 16.5186 25.9438 16.2204Z" fill="url(#paint19_linear_7890_5696)"/>
<path d="M24.2976 17.9779H24.2936L23.8364 18.467C23.0371 18.2563 22.0749 18.1489 20.9536 18.141H20.8661C19.7488 18.1489 18.7865 18.2563 17.9873 18.467L17.534 17.9819H17.53C18.369 17.7195 19.3829 17.5763 20.5679 17.5485L20.8661 17.5405H20.9098L21.208 17.5445C22.4129 17.5723 23.4427 17.7155 24.2976 17.9779Z" fill="url(#paint20_linear_7890_5696)"/>
<path d="M30.8624 22.8846C30.5403 23.6043 29.8405 25.0239 28.9299 26.006C27.9955 27.008 26.1943 27.175 25.4308 27.2028C25.7211 26.002 26.0909 25.2783 26.4806 24.7495H26.4885C26.4885 24.7495 26.4965 24.7376 26.5044 24.7217C26.5044 24.7217 26.5071 24.7177 26.5124 24.7097C26.7549 24.3877 27.0094 24.1332 27.2599 23.8827C27.8166 23.326 29.3196 23.0317 30.8624 22.8846Z" fill="url(#paint21_linear_7890_5696)"/>
<path d="M26.5044 24.7217C26.5044 24.7217 26.4925 24.7495 26.4885 24.7535H26.4806C26.4806 24.7535 26.4965 24.7296 26.5044 24.7217Z" fill="url(#paint22_linear_7890_5696)"/>
<path d="M24.2101 34.9565C24.2061 34.9844 24.2061 35.0082 24.2061 35.0361V34.9724C24.2061 34.9724 24.2101 34.9645 24.2101 34.9565Z" fill="url(#paint23_linear_7890_5696)"/>
<defs>
<linearGradient id="paint0_linear_7890_5696" x1="38.6865" y1="2.57095" x2="15.5009" y2="39.2281" gradientUnits="userSpaceOnUse">
<stop stop-color="#F5CB86"/>
<stop offset="1" stop-color="#7E5936"/>
</linearGradient>
<linearGradient id="paint1_linear_7890_5696" x1="38.6865" y1="2.57095" x2="15.5009" y2="39.2281" gradientUnits="userSpaceOnUse">
<stop stop-color="#F5CB86"/>
<stop offset="1" stop-color="#7E5936"/>
</linearGradient>
<linearGradient id="paint2_linear_7890_5696" x1="38.6865" y1="2.57095" x2="15.5009" y2="39.2281" gradientUnits="userSpaceOnUse">
<stop stop-color="#F5CB86"/>
<stop offset="1" stop-color="#7E5936"/>
</linearGradient>
<linearGradient id="paint3_linear_7890_5696" x1="38.6865" y1="2.57095" x2="15.5009" y2="39.2281" gradientUnits="userSpaceOnUse">
<stop stop-color="#F5CB86"/>
<stop offset="1" stop-color="#7E5936"/>
</linearGradient>
<linearGradient id="paint4_linear_7890_5696" x1="38.6865" y1="2.57095" x2="15.5009" y2="39.2281" gradientUnits="userSpaceOnUse">
<stop stop-color="#F5CB86"/>
<stop offset="1" stop-color="#7E5936"/>
</linearGradient>
<linearGradient id="paint5_linear_7890_5696" x1="38.6865" y1="2.57095" x2="15.5009" y2="39.2281" gradientUnits="userSpaceOnUse">
<stop stop-color="#F5CB86"/>
<stop offset="1" stop-color="#7E5936"/>
</linearGradient>
<linearGradient id="paint6_linear_7890_5696" x1="38.6865" y1="2.57095" x2="15.5009" y2="39.2281" gradientUnits="userSpaceOnUse">
<stop stop-color="#F5CB86"/>
<stop offset="1" stop-color="#7E5936"/>
</linearGradient>
<linearGradient id="paint7_linear_7890_5696" x1="38.6865" y1="2.57095" x2="15.5009" y2="39.2281" gradientUnits="userSpaceOnUse">
<stop stop-color="#F5CB86"/>
<stop offset="1" stop-color="#7E5936"/>
</linearGradient>
<linearGradient id="paint8_linear_7890_5696" x1="38.6865" y1="2.57095" x2="15.5009" y2="39.2281" gradientUnits="userSpaceOnUse">
<stop stop-color="#F5CB86"/>
<stop offset="1" stop-color="#7E5936"/>
</linearGradient>
<linearGradient id="paint9_linear_7890_5696" x1="38.6865" y1="2.57095" x2="15.5009" y2="39.2281" gradientUnits="userSpaceOnUse">
<stop stop-color="#F5CB86"/>
<stop offset="1" stop-color="#7E5936"/>
</linearGradient>
<linearGradient id="paint10_linear_7890_5696" x1="38.6865" y1="2.57095" x2="15.5009" y2="39.2281" gradientUnits="userSpaceOnUse">
<stop stop-color="#F5CB86"/>
<stop offset="1" stop-color="#7E5936"/>
</linearGradient>
<linearGradient id="paint11_linear_7890_5696" x1="38.6865" y1="2.57095" x2="15.5009" y2="39.2281" gradientUnits="userSpaceOnUse">
<stop stop-color="#F5CB86"/>
<stop offset="1" stop-color="#7E5936"/>
</linearGradient>
<linearGradient id="paint12_linear_7890_5696" x1="38.6865" y1="2.57095" x2="15.5009" y2="39.2281" gradientUnits="userSpaceOnUse">
<stop stop-color="#F5CB86"/>
<stop offset="1" stop-color="#7E5936"/>
</linearGradient>
<linearGradient id="paint13_linear_7890_5696" x1="38.6865" y1="2.57095" x2="15.5009" y2="39.2281" gradientUnits="userSpaceOnUse">
<stop stop-color="#F5CB86"/>
<stop offset="1" stop-color="#7E5936"/>
</linearGradient>
<linearGradient id="paint14_linear_7890_5696" x1="38.6865" y1="2.57095" x2="15.5009" y2="39.2281" gradientUnits="userSpaceOnUse">
<stop stop-color="#F5CB86"/>
<stop offset="1" stop-color="#7E5936"/>
</linearGradient>
<linearGradient id="paint15_linear_7890_5696" x1="38.6865" y1="2.57095" x2="15.5009" y2="39.2281" gradientUnits="userSpaceOnUse">
<stop stop-color="#F5CB86"/>
<stop offset="1" stop-color="#7E5936"/>
</linearGradient>
<linearGradient id="paint16_linear_7890_5696" x1="38.6865" y1="2.57095" x2="15.5009" y2="39.2281" gradientUnits="userSpaceOnUse">
<stop stop-color="#F5CB86"/>
<stop offset="1" stop-color="#7E5936"/>
</linearGradient>
<linearGradient id="paint17_linear_7890_5696" x1="38.6865" y1="2.57095" x2="15.5009" y2="39.2281" gradientUnits="userSpaceOnUse">
<stop stop-color="#F5CB86"/>
<stop offset="1" stop-color="#7E5936"/>
</linearGradient>
<linearGradient id="paint18_linear_7890_5696" x1="38.6865" y1="2.57095" x2="15.5009" y2="39.2281" gradientUnits="userSpaceOnUse">
<stop stop-color="#F5CB86"/>
<stop offset="1" stop-color="#7E5936"/>
</linearGradient>
<linearGradient id="paint19_linear_7890_5696" x1="38.6865" y1="2.57095" x2="15.5009" y2="39.2281" gradientUnits="userSpaceOnUse">
<stop stop-color="#F5CB86"/>
<stop offset="1" stop-color="#7E5936"/>
</linearGradient>
<linearGradient id="paint20_linear_7890_5696" x1="38.6865" y1="2.57095" x2="15.5009" y2="39.2281" gradientUnits="userSpaceOnUse">
<stop stop-color="#F5CB86"/>
<stop offset="1" stop-color="#7E5936"/>
</linearGradient>
<linearGradient id="paint21_linear_7890_5696" x1="38.6865" y1="2.57095" x2="15.5009" y2="39.2281" gradientUnits="userSpaceOnUse">
<stop stop-color="#F5CB86"/>
<stop offset="1" stop-color="#7E5936"/>
</linearGradient>
<linearGradient id="paint22_linear_7890_5696" x1="38.6865" y1="2.57095" x2="15.5009" y2="39.2281" gradientUnits="userSpaceOnUse">
<stop stop-color="#F5CB86"/>
<stop offset="1" stop-color="#7E5936"/>
</linearGradient>
<linearGradient id="paint23_linear_7890_5696" x1="38.6865" y1="2.57095" x2="15.5009" y2="39.2281" gradientUnits="userSpaceOnUse">
<stop stop-color="#F5CB86"/>
<stop offset="1" stop-color="#7E5936"/>
</linearGradient>
</defs>
</svg>
